<?xml version="1.0" standalone="no"?>
<!DOCTYPE svg PUBLIC "-//W3C//DTD SVG 20010904//EN"
 "http://www.w3.org/TR/2001/REC-SVG-20010904/DTD/svg10.dtd">
<svg version="1.0" xmlns="http://www.w3.org/2000/svg"
 width="150" height="100" viewBox="0 50 600 450"
 preserveAspectRatio="xMidYMid meet">

<g transform="translate(0,612) scale(0.1,-0.1)"
fill="#DC5F00" stroke="none">
<path d="M3040 5024 c0 -652 -4 -1093 -9 -1090 -5 4 -12 29 -16 56 -10 69 -25
73 -25 6 0 -31 -4 -56 -9 -56 -4 0 -21 28 -36 63 l-27 62 -14 -38 c-7 -20 -16
-65 -20 -98 l-7 -61 -16 26 c-9 14 -23 28 -31 31 -9 3 -25 20 -35 37 l-20 33
-9 -57 c-11 -71 -26 -74 -62 -13 -14 25 -28 44 -30 42 -2 -2 5 -34 15 -70 10
-37 15 -70 11 -72 -5 -3 -28 19 -52 47 -71 87 -98 105 -98 67 0 -15 -5 -19
-15 -15 -21 8 -19 -3 11 -68 14 -32 24 -60 20 -63 -3 -3 -23 -1 -45 5 -33 8
-40 7 -43 -6 -2 -10 -30 15 -77 69 -183 208 -273 257 -455 246 -99 -6 -178
-28 -294 -83 -67 -32 -73 -38 -70 -62 4 -38 34 -39 105 -4 218 109 410 101
544 -25 28 -26 68 -68 90 -94 37 -44 39 -51 44 -128 2 -45 9 -90 15 -100 16
-31 13 -33 -32 -26 l-43 7 30 -32 c33 -36 37 -35 -40 -13 -18 5 -17 3 5 -21
l25 -28 -30 8 c-16 4 -38 11 -47 15 -25 13 -28 11 -28 -21 0 -23 -5 -31 -25
-36 -14 -3 -34 -4 -45 -1 -34 9 -22 -7 28 -38 l47 -30 -40 -3 c-22 -2 -96 2
-165 10 -69 7 -177 13 -240 13 -107 0 -119 -2 -175 -30 -102 -51 -209 -174
-289 -332 -31 -62 -33 -89 -7 -102 26 -14 41 1 86 84 57 108 121 191 178 234
95 72 153 83 367 69 128 -8 164 -14 205 -33 l50 -23 -42 -1 c-24 -1 -43 -4
-43 -8 0 -5 19 -19 41 -33 39 -24 40 -25 20 -39 -12 -7 -21 -19 -21 -26 0 -7
-19 -16 -42 -21 -24 -5 -43 -13 -43 -19 0 -5 27 -17 60 -25 99 -25 109 -43 29
-55 -95 -14 -123 -46 -56 -64 20 -6 43 -11 50 -11 8 0 12 -7 10 -16 -2 -11
-28 -25 -69 -38 -76 -25 -128 -61 -171 -120 -71 -97 -118 -224 -163 -439 -29
-136 -29 -164 -3 -181 31 -19 46 13 78 159 57 259 120 406 201 465 36 25 43
27 111 22 72 -5 94 -11 71 -19 -7 -3 -23 -13 -35 -24 l-23 -20 45 6 45 6 -30
-20 c-16 -11 -42 -26 -57 -32 -35 -14 -36 -29 -3 -29 19 0 25 -5 25 -23 0 -13
-7 -32 -15 -43 -23 -31 -18 -34 33 -19 26 8 60 15 76 15 l30 0 -35 -36 -34
-36 40 17 c22 9 47 19 55 22 8 3 -1 -10 -19 -30 -39 -42 -38 -43 12 -22 20 8
39 15 42 15 17 0 -3 -31 -61 -94 -164 -176 -213 -329 -152 -482 21 -54 26 -59
53 -59 25 0 31 4 33 27 2 15 -5 42 -14 60 -24 45 -24 140 0 203 25 67 95 164
153 214 51 43 65 46 39 9 -26 -37 -18 -42 20 -13 19 15 37 25 39 23 3 -2 -14
-30 -36 -61 -23 -32 -39 -60 -37 -62 2 -3 19 0 37 5 18 5 38 7 46 4 8 -3 28 4
45 16 l31 22 -7 -29 c-4 -15 -13 -45 -21 -67 -7 -21 -13 -42 -13 -47 0 -19 26
-7 62 28 37 36 38 37 39 13 1 -14 0 -35 -1 -47 -2 -33 5 -29 41 22 18 25 34
43 36 41 3 -2 0 -21 -6 -42 -14 -52 -7 -53 24 -5 34 54 48 45 40 -27 l-7 -57
31 63 c38 78 61 83 61 13 0 -58 20 -73 55 -41 12 11 25 17 29 13 4 -4 12 0 17
10 14 23 27 21 31 -5 5 -34 27 -33 42 4 l14 33 7 -40 c14 -85 17 -96 28 -92 7
2 16 27 20 55 13 79 27 71 57 -31 18 -61 18 -61 19 -22 2 54 11 87 24 82 6 -2
21 -28 33 -58 27 -67 47 -73 63 -19 9 32 16 40 36 40 32 0 34 6 25 65 -4 28
-7 51 -5 53 2 2 15 -16 30 -40 l27 -43 -6 35 c-3 19 -8 46 -12 60 -3 14 13 -4
36 -40 23 -36 47 -68 52 -71 15 -9 53 -4 51 6 -18 114 -15 124 27 80 13 -14
25 -23 27 -21 2 2 -8 29 -22 61 -25 57 -25 57 -2 41 60 -44 68 -48 73 -43 4 3
-5 26 -19 51 -27 48 -25 55 7 31 27 -21 46 -19 46 5 0 23 12 25 43 8 48 -25
96 -72 120 -116 32 -60 43 -99 67 -246 20 -121 29 -138 65 -134 18 3 20 10 18
67 -2 82 -38 249 -67 316 -13 29 -57 88 -99 135 -42 46 -75 86 -72 88 2 2 25
-7 51 -22 25 -14 48 -26 51 -26 2 0 -8 15 -22 34 -19 25 -22 35 -13 39 9 3 2
16 -21 41 -39 40 -29 46 29 16 53 -27 59 -25 25 10 -33 35 -32 35 25 15 46
-16 90 -20 90 -7 0 11 -43 50 -100 91 l-45 33 98 -7 c53 -4 97 -3 97 1 0 5
-17 20 -38 34 -22 15 -31 25 -22 26 8 2 31 5 51 9 l36 5 -12 37 c-8 22 -24 42
-41 51 l-29 15 49 14 c55 16 52 24 -19 42 -27 7 -61 20 -75 29 l-25 17 60 6
c77 9 237 -5 294 -25 107 -39 134 -82 222 -359 63 -197 77 -225 113 -211 26
10 25 28 -10 155 -86 313 -137 405 -258 464 -58 29 -169 54 -236 55 -25 0 -67
6 -95 14 -55 14 -53 15 49 37 52 11 56 14 40 26 -10 7 -44 13 -77 13 -61 0
-70 13 -16 25 36 8 28 22 -16 27 l-30 4 43 18 c23 10 42 24 42 31 0 7 3 20 6
29 5 13 -2 16 -36 16 l-43 0 19 22 c19 21 19 21 -3 16 -35 -9 -28 6 25 52 130
116 270 195 362 206 106 11 252 -37 431 -143 50 -30 79 -27 79 9 0 26 -64 71
-185 131 -120 60 -168 72 -290 72 -103 0 -114 -2 -178 -32 -37 -18 -100 -55
-141 -83 -40 -27 -81 -50 -92 -50 -10 0 -50 -14 -89 -30 -88 -38 -98 -38 -57
1 38 36 40 45 10 53 -22 5 -20 8 26 55 39 40 46 52 34 56 -9 4 -26 2 -37 -5
-12 -6 -47 -15 -78 -21 -32 -6 -66 -12 -75 -15 -28 -8 -22 8 27 72 63 83 62
105 -3 57 -27 -21 -16 -5 38 57 41 47 98 117 127 155 59 81 117 126 200 158
50 18 81 22 233 23 96 2 181 3 188 3 6 1 12 12 12 26 0 36 -31 45 -179 51
-203 9 -353 -29 -432 -108 -19 -19 -61 -72 -93 -117 -65 -94 -191 -230 -201
-219 -4 4 0 27 8 51 22 65 8 78 -38 38 -43 -38 -59 -31 -45 19 15 52 13 54
-27 21 -21 -17 -46 -31 -56 -31 -19 0 -19 9 -1 85 5 19 4 19 -13 -2 -10 -11
-31 -37 -46 -57 -36 -46 -46 -46 -40 2 2 20 1 47 -4 60 -9 23 -9 23 -28 -12
-31 -58 -51 -48 -62 32 l-9 67 -18 -53 c-10 -30 -23 -51 -29 -49 -7 2 -21 29
-32 60 -11 31 -22 57 -25 57 -4 0 -16 -28 -27 -62 l-21 -63 -1 1088 c-1 1080
-1 1087 -21 1087 -20 0 -20 -7 -20 -1096z m-114 -1739 c88 -51 132 -178 101
-285 -65 -221 -337 -225 -402 -6 -30 99 -8 193 59 261 69 68 157 80 242 30z
m445 9 c34 -17 88 -79 105 -120 8 -19 14 -64 14 -103 0 -247 -280 -331 -393
-117 -31 59 -31 184 1 243 54 103 177 146 273 97z"/>
<path d="M2855 3131 c-64 -27 -81 -110 -32 -158 20 -21 37 -28 67 -28 116 0
130 170 15 190 -16 2 -39 1 -50 -4z"/>
<path d="M3171 3127 c-74 -43 -62 -154 20 -178 94 -29 166 94 94 161 -28 26
-83 35 -114 17z"/>
</g>
</svg>
